<svg preserveAspectRatio="none" overflow="visible" style="display: block;" width="119.06" height="140.28" viewBox="0 0 119.06 140.28" fill="none" xmlns="http://www.w3.org/2000/svg">
<g id="Capa_1" clip-path="url(#clip0_0_51)">
<path id="Vector" d="M39.19 9.54L38.09 11.5L39.24 13.44C39.4 13.71 39.1 14.01 38.83 13.86L36.87 12.76L34.93 13.91C34.66 14.07 34.36 13.77 34.51 13.5L35.61 11.54L34.46 9.6C34.3 9.33 34.6 9.03 34.87 9.18L36.83 10.28L38.77 9.13C39.04 8.97 39.34 9.27 39.19 9.54Z" fill="#EFEBE8"/>
<path id="Vector_2" d="M15.05 79.19L13.95 81.15L15.1 83.09C15.26 83.36 14.96 83.66 14.69 83.51L12.73 82.41L10.79 83.56C10.52 83.72 10.22 83.42 10.37 83.15L11.47 81.19L10.32 79.25C10.16 78.98 10.46 78.68 10.73 78.83L12.69 79.93L14.63 78.78C14.9 78.62 15.2 78.92 15.05 79.19Z" fill="#EFEBE8"/>
<path id="Vector_3" d="M93.78 69.95H2V138.28H93.78V69.95Z" stroke="#EFEBE8" stroke-width="4" stroke-miterlimit="10"/>
<path id="Vector_4" d="M93.78 120.75H2V136.23H93.78V120.75Z" fill="#EFEBE8"/>
<path id="Vector_5" d="M116.39 54.25H24.61V69.73H116.39V54.25Z" fill="#EFEBE8"/>
<path id="Vector_6" d="M86.7 111.23H42.14" stroke="#EFEBE8" stroke-width="4" stroke-miterlimit="10"/>
<path id="Vector_7" d="M108.17 44.53H63.61" stroke="#EFEBE8" stroke-width="4" stroke-miterlimit="10"/>
<path id="Vector_8" d="M117.06 2H25.28V69.72H117.06V2Z" stroke="#EFEBE8" stroke-width="4" stroke-miterlimit="10"/>
</g>
<defs>
<clipPath id="clip0_0_51">
<rect width="119.06" height="140.28" fill="white"/>
</clipPath>
</defs>
</svg>
