<svg width="165" height="43" viewBox="0 0 165 43" fill="none" xmlns="http://www.w3.org/2000/svg">
<path d="M18.42 41.04C22.5 41.04 25.86 38.64 26.82 34.98L27.18 35.52L25.38 42H0V41.76C0.72 41.76 2.04 41.04 2.04 38.16V3.84C2.04 0.96 0.72 0.240002 0 0.240002V0H25.38L27.18 6.48L26.82 7.02C25.86 3.36 22.5 0.960001 18.42 0.960001H5.28V17.16H17.52C22.2 17.16 22.8 13.98 22.8 12.36H23.04V22.56H22.8C22.8 21.06 22.14 17.76 17.52 17.76H5.28V41.04H18.42Z" fill="#301F4B"/>
<path d="M50.88 29.46L67.62 0H71.04V0.240002C70.32 0.240002 69 0.96 69 3.84V38.16C69 41.04 70.32 41.76 71.04 41.76V42H63.72V41.76C64.44 41.76 65.76 41.04 65.76 38.16V5.4L51.36 30.3L52.44 32.22C55.92 38.34 54.24 42.54 50.34 42.54C45.72 42.54 45.3 36.6 48.54 32.4L32.28 3.9V38.16C32.28 41.04 33.6 41.76 34.32 41.76V42H29.28V41.76C30 41.76 31.32 41.04 31.32 38.16V3.84C31.32 0.96 30 0.240002 29.28 0.240002V0H33.96L50.88 29.46ZM50.04 41.52C52.02 41.52 52.44 39.24 50.46 35.76L49.08 33.3C46.68 36.6 47.1 41.52 50.04 41.52Z" fill="#301F4B"/>
<path d="M89.8799 0C96.1199 0 100.2 3.54 100.2 8.52C100.2 12.36 97.7999 15.06 93.4799 15.78C98.8199 16.62 103.56 20.16 103.56 28.56C103.56 36.96 99.1799 42 89.2799 42H74.6399V41.76C74.9399 41.76 76.1999 40.92 76.1999 38.16V3.84C76.1999 1.08 74.9399 0.240002 74.6399 0.240002V0H89.8799ZM79.4399 19.8C80.8799 17.58 85.7999 15.6 90.8399 15.6C95.2799 15.18 96.8999 12.48 96.8999 8.88C96.8999 4.14 94.0199 0.960001 89.7599 0.960001H79.4399V19.8ZM89.5799 41.04C96.5399 41.04 100.32 36.54 100.32 28.8C100.32 19.5 94.8599 16.5 89.4599 16.5C85.1399 16.5 80.8799 18.42 79.4399 20.58V41.04H89.5799Z" fill="#301F4B"/>
<path d="M111.84 41.04H124.98C129.06 41.04 132.42 38.64 133.38 34.98L133.74 35.52L131.94 42H106.56V41.76C107.28 41.76 108.6 41.04 108.6 38.16V3.84C108.6 0.96 107.28 0.240002 106.56 0.240002V0H131.94L133.74 6.48L133.38 7.02C132.42 3.36 129.06 0.960001 124.98 0.960001H111.84V14.94C113.82 13.2 115.44 12.48 116.88 12.48C121.8 12.48 124.14 20.28 127.14 20.28C128.1 20.28 129.12 19.44 130.32 17.4L130.44 17.46C128.94 21.48 127.62 22.92 126.48 22.92C123.42 22.92 120.9 13.44 116.22 13.44C114.96 13.44 113.52 14.1 111.84 15.9V41.04Z" fill="#301F4B"/>
<path d="M135.84 42V41.76C136.14 41.76 137.4 40.92 137.4 38.16V3.84C137.4 1.08 136.14 0.240002 135.84 0.240002V0H150.6C165.96 0 167.52 23.22 150.48 23.22C146.76 23.22 144.9 22.02 144.78 22.02C144.66 22.02 145.92 22.98 148.44 26.7C153.84 34.56 158.04 42 164.88 42H160.02C154.5 41.34 148.62 33.06 144.54 26.64C141.84 22.38 142.02 21.3 143.34 21.3C144.66 21.3 147.12 22.38 149.04 22.38C163.62 22.38 161.64 0.6 149.28 0.6H140.64V38.16C140.64 40.92 141.9 41.76 142.2 41.76V42H135.84Z" fill="#301F4B"/>
</svg>
