<svg width="477" height="78" viewBox="0 0 477 78" fill="none" xmlns="http://www.w3.org/2000/svg">
<path d="M0 1.26782H19.3019L28.7381 48.1541C29.6787 52.7753 29.6787 56.0265 29.6787 56.0265H29.8934C29.8934 56.0265 29.9956 52.7753 31.1509 48.1541L42.6931 1.26782H57.4865L68.7118 48.1541C69.8671 52.7753 69.9693 56.0265 69.9693 56.0265H70.184C70.184 56.0265 70.184 52.7753 71.1246 48.1541L81.4093 1.26782H100.394L81.4093 76.2696H60.9522L51.516 38.4006C50.3607 33.575 50.0438 29.5877 50.0438 29.5877H49.8291C49.8291 29.5877 49.5122 33.575 48.3569 38.4006L38.9207 76.2696H18.2591L0.0102334 1.26782H0Z" fill="#E83F40"/>
<path d="M111.292 1.26782H158.29V17.0022H129.654V30.6408H152.524V46.3752H129.654V60.5352H159.762V76.2696H111.303V1.26782H111.292Z" fill="#E83F40"/>
<path d="M172.96 1.26782H200.543C215.541 1.26782 226.03 7.98484 226.03 20.8873C226.03 27.1851 222.984 33.5852 217.32 36.8364V37.0409C225.918 39.6582 229.067 47.326 229.067 53.9306C229.067 70.2989 215.429 76.2798 200.533 76.2798H172.95V1.27804L172.96 1.26782ZM200.758 30.3341C205.379 30.3341 207.373 26.9806 207.373 23.4125C207.373 19.8444 205.379 17.0125 200.451 17.0125H191.322V30.3341H200.758ZM202.332 60.5454C207.679 60.5454 210.307 56.875 210.307 52.6731C210.307 48.4711 207.792 45.0154 202.435 45.0154H191.312V60.5454H202.322H202.332Z" fill="#E83F40"/>
<path d="M270.196 52.8774C270.196 52.8774 278.691 60.6373 288.138 60.6373C291.91 60.6373 296.01 59.1651 296.01 54.6564C296.01 45.7413 262.232 46.0582 262.232 22.9729C262.232 9.12985 273.876 0 288.772 0C304.925 0 312.899 8.49598 312.899 8.49598L305.139 23.4943C305.139 23.4943 297.584 16.8897 288.567 16.8897C284.795 16.8897 280.593 18.5664 280.593 22.7684C280.593 32.205 314.371 30.5283 314.371 54.2372C314.371 66.7205 304.822 77.527 287.933 77.527C271.044 77.527 260.555 66.8329 260.555 66.8329L270.206 52.8774H270.196Z" fill="#E83F40"/>
<path d="M326.936 1.26782H345.287V76.2696H326.936V1.26782Z" fill="#E83F40"/>
<path d="M377.276 17.0125H354.519V1.27808H418.405V17.0125H395.648V76.2798H377.286V17.0125H377.276Z" fill="#E83F40"/>
<path d="M427.626 1.26782H474.624V17.0022H445.988V30.6408H468.858V46.3752H445.988V60.5352H476.096V76.2696H427.637V1.26782H427.626Z" fill="#E83F40"/>
</svg>
