<svg width="590" height="92" viewBox="0 0 590 92" fill="none" xmlns="http://www.w3.org/2000/svg">
<path d="M46.4451 0.0102026C68.3642 0.0102026 79.6305 12.5139 79.6305 12.5139L69.6012 28.8617C69.6012 28.8617 59.6947 19.8239 47.4368 19.8239C30.4659 19.8239 22.42 32.3276 22.42 45.0869C22.42 57.8462 31.0895 71.7097 47.4368 71.7097C60.8091 71.7097 70.961 60.8111 70.961 60.8111L82.1045 76.658C82.1045 76.658 69.6012 91.5234 46.4349 91.5234C18.6987 91.5234 0 71.8323 0 45.5776C0 19.323 19.813 0 46.4349 0L46.4451 0.0102026Z" fill="#301F4B"/>
<path d="M95.2314 1.49268H126.065C135.103 1.49268 139.438 2.11632 143.282 3.59877C153.311 7.4327 159.629 16.4808 159.629 29.3627C159.629 38.7789 155.172 49.0538 146.379 53.5113V53.7567C146.379 53.7567 147.616 55.372 149.722 59.0833L166.939 90.0409H142.791L127.067 60.1977H116.915V90.0409H95.2417V1.49268H95.2314ZM126.311 41.6211C133.242 41.6211 137.577 37.7769 137.577 30.7225C137.577 24.0361 135.103 20.0693 124.205 20.0693H116.895V41.6211H126.311Z" fill="#301F4B"/>
<path d="M179.677 1.49268H235.16V20.0693H201.351V36.1718H228.351V54.7484H201.351V71.4643H236.888V90.0409H179.677V1.49268Z" fill="#301F4B"/>
<path d="M296.828 71.4643H269.214L263.888 90.0409H241.601L271.688 1.49268H294.476L324.564 90.0409H302.277L296.828 71.4643ZM282.954 21.6847C282.954 21.6847 280.971 31.3461 279.366 36.9181L274.285 54.135H291.747L286.788 36.9181C285.173 31.3461 283.2 21.6847 283.2 21.6847H282.954Z" fill="#301F4B"/>
<path d="M346.718 20.0693H319.851V1.49268H395.269V20.0693H368.402V90.0409H346.728V20.0693H346.718Z" fill="#301F4B"/>
<path d="M406.157 1.49268H427.831V90.0409H406.157V1.49268Z" fill="#301F4B"/>
<path d="M437.482 1.49268H461.006L476.607 51.896C478.335 57.4679 479.95 66.1377 479.95 66.1377H480.195C480.195 66.1377 481.811 57.4679 483.539 51.896L499.385 1.49268H522.541L491.339 90.0409H468.807L437.472 1.49268H437.482Z" fill="#301F4B"/>
<path d="M532.202 1.49268H587.685V20.0693H553.876V36.1718H580.876V54.7484H553.876V71.4643H589.413V90.0409H532.202V1.49268Z" fill="#301F4B"/>
</svg>
