<svg width="390" height="78" viewBox="0 0 390 78" fill="none" xmlns="http://www.w3.org/2000/svg">
<path d="M0 1.26782H19.3019L28.7381 48.1541C29.6787 52.765 29.6787 56.0264 29.6787 56.0264H29.8934C29.8934 56.0264 29.9956 52.7753 31.1509 48.1541L42.6931 1.26782H57.4865L68.7118 48.1541C69.8671 52.765 69.9693 56.0264 69.9693 56.0264H70.184C70.184 56.0264 70.184 52.7753 71.1245 48.1541L81.4093 1.26782H100.394L81.4093 76.2695H60.9522L51.516 38.4006C50.3607 33.575 50.0438 29.5877 50.0438 29.5877H49.8291C49.8291 29.5877 49.5122 33.575 48.3569 38.4006L38.9207 76.2695H18.2591L0.0102178 1.26782H0Z" fill="#E83F40"/>
<path d="M145.061 0.0102539C167.716 0.0102539 184.288 16.7977 184.288 38.2984C184.288 59.799 167.716 77.5271 145.061 77.5271C122.405 77.5271 105.833 60.3204 105.833 38.2984C105.833 16.2763 122.405 0.0102539 145.061 0.0102539ZM145.061 60.7498C156.286 60.7498 165.303 51.0986 165.303 38.2984C165.303 25.4982 156.286 16.7977 145.061 16.7977C133.835 16.7977 124.818 26.0298 124.818 38.2984C124.818 50.5669 133.835 60.7498 145.061 60.7498Z" fill="#E83F40"/>
<path d="M196.771 1.26782H222.892C230.549 1.26782 234.219 1.78923 237.47 3.04675C245.966 6.29792 251.313 13.9555 251.313 24.8643C251.313 32.8389 247.54 41.5393 240.088 45.3221V45.5368C240.088 45.5368 241.141 46.8966 242.919 50.0455L257.498 76.2695H237.041L223.72 50.9861H215.122V76.2695H196.771V1.26782ZM223.096 35.2517C228.975 35.2517 232.645 32.0005 232.645 26.0196C232.645 20.3556 230.549 17.0022 221.317 17.0022H215.132V35.2517H223.106H223.096Z" fill="#E83F40"/>
<path d="M268.304 1.26782H286.655V30.2216H294.21L309.74 1.26782H329.461L309.218 37.1431V37.3476L330.616 76.2695H310.057L294.221 45.8436H286.666V76.2695H268.314V1.26782H268.304Z" fill="#E83F40"/>
<path d="M344.97 52.8774C344.97 52.8774 353.466 60.6373 362.912 60.6373C366.684 60.6373 370.784 59.1651 370.784 54.6564C370.784 45.7412 337.006 46.0582 337.006 22.9729C337.006 9.12985 348.65 0 363.546 0C379.699 0 387.673 8.49597 387.673 8.49597L379.914 23.4943C379.914 23.4943 372.358 16.8897 363.341 16.8897C359.569 16.8897 355.367 18.5664 355.367 22.7684C355.367 32.2049 389.145 30.5282 389.145 54.2372C389.145 66.7204 379.597 77.527 362.708 77.527C345.818 77.527 335.329 66.8227 335.329 66.8227L344.98 52.8672L344.97 52.8774Z" fill="#E83F40"/>
</svg>
