<svg width="590" height="92" viewBox="0 0 590 92" fill="none" xmlns="http://www.w3.org/2000/svg">
<path d="M46.4451 0.0102182C68.3642 0.0102182 79.6305 12.5139 79.6305 12.5139L69.6012 28.8618C69.6012 28.8618 59.6947 19.8239 47.4368 19.8239C30.4659 19.8239 22.42 32.3276 22.42 45.0869C22.42 57.8462 31.0895 71.7097 47.4368 71.7097C60.8091 71.7097 70.961 60.8111 70.961 60.8111L82.1045 76.658C82.1045 76.658 69.6012 91.5234 46.4349 91.5234C18.6987 91.5234 0 71.8324 0 45.5777C0 19.323 19.813 0 46.4349 0L46.4451 0.0102182Z" fill="#301F4B"/>
<path d="M95.2314 1.50293H126.065C135.103 1.50293 139.438 2.12658 143.282 3.60903C153.311 7.44295 159.629 16.491 159.629 29.373C159.629 38.7891 155.172 49.064 146.379 53.5216V53.7669C146.379 53.7669 147.616 55.3823 149.722 59.0935L166.939 90.0512H142.791L127.067 60.2079H116.915V90.0512H95.2417V1.50293H95.2314ZM126.311 41.6211C133.242 41.6211 137.577 37.7769 137.577 30.7225C137.577 24.0362 135.103 20.0693 124.205 20.0693H116.895V41.6211H126.311Z" fill="#301F4B"/>
<path d="M179.677 1.50293H235.16V20.0796H201.351V36.182H228.351V54.7587H201.351V71.4746H236.888V90.0512H179.677V1.50293Z" fill="#301F4B"/>
<path d="M296.828 71.4746H269.214L263.888 90.0512H241.601L271.688 1.50293H294.476L324.564 90.0512H302.277L296.828 71.4746ZM282.954 21.6847C282.954 21.6847 280.971 31.3462 279.366 36.9181L274.285 54.135H291.747L286.788 36.9181C285.173 31.3462 283.2 21.6847 283.2 21.6847H282.954Z" fill="#301F4B"/>
<path d="M346.718 20.0796H319.851V1.50293H395.269V20.0796H368.402V90.0512H346.728V20.0796H346.718Z" fill="#301F4B"/>
<path d="M406.157 1.50293H427.831V90.0512H406.157V1.50293Z" fill="#301F4B"/>
<path d="M437.482 1.50293H461.006L476.607 51.9062C478.335 57.4782 479.95 66.148 479.95 66.148H480.195C480.195 66.148 481.811 57.4782 483.539 51.9062L499.385 1.50293H522.541L491.339 90.0512H468.807L437.472 1.50293H437.482Z" fill="#301F4B"/>
<path d="M532.202 1.50293H587.685V20.0796H553.876V36.182H580.876V54.7587H553.876V71.4746H589.413V90.0512H532.202V1.50293Z" fill="#301F4B"/>
</svg>
